
<global>
amp_veltrack=0
ampeg_attack=0.03
ampeg_release=0.5
</global>

<group>
group_label=PP
xf_cccurve=gain
xfin_hicc1=63
xfout_hicc1=127
xfout_locc1=64

<region>
hikey=A5
hivel=127
lokey=G#5
loop_end=233002
loop_mode=loop_continuous
loop_start=83025
loop_xfade=37494
lovel=0
offset=2648
pitch_keycenter=G#5
sample=Violas_sustain_PP_G#5.opus
</region>

<region>
hikey=A4
hivel=127
lokey=G#4
loop_end=233555
loop_mode=loop_continuous
loop_start=83223
loop_xfade=37583
lovel=0
offset=102
pitch_keycenter=G#4
sample=Violas_sustain_PP_G#4.opus
</region>

<region>
hikey=A3
hivel=127
lokey=G#3
loop_end=236582
loop_mode=loop_continuous
loop_start=84301
loop_xfade=38070
lovel=0
offset=4454
pitch_keycenter=G#3
sample=Violas_sustain_PP_G#3.opus
</region>

<region>
hikey=G5
hivel=127
lokey=F#5
loop_end=237235
loop_mode=loop_continuous
loop_start=84534
loop_xfade=38175
lovel=0
offset=836
pitch_keycenter=F#5
sample=Violas_sustain_PP_F#5.opus
</region>

<region>
hikey=G4
hivel=127
lokey=F#4
loop_end=227182
loop_mode=loop_continuous
loop_start=80951
loop_xfade=36557
lovel=0
pitch_keycenter=F#4
sample=Violas_sustain_PP_F#4.opus
</region>

<region>
hikey=G3
hivel=127
lokey=F#3
loop_end=231052
loop_mode=loop_continuous
loop_start=82331
loop_xfade=37180
lovel=0
offset=305
pitch_keycenter=F#3
sample=Violas_sustain_PP_F#3.opus
</region>

<region>
hikey=F5
hivel=127
lokey=E5
loop_end=226837
loop_mode=loop_continuous
loop_start=80829
loop_xfade=36502
lovel=0
offset=565
pitch_keycenter=E5
sample=Violas_sustain_PP_E5.opus
</region>

<region>
hikey=F4
hivel=127
lokey=E4
loop_end=233317
loop_mode=loop_continuous
loop_start=83138
loop_xfade=37544
lovel=0
offset=3546
pitch_keycenter=E4
sample=Violas_sustain_PP_E4.opus
</region>

<region>
hikey=F3
hivel=127
lokey=E3
loop_end=234164
loop_mode=loop_continuous
loop_start=83440
loop_xfade=37681
lovel=0
offset=1878
pitch_keycenter=E3
sample=Violas_sustain_PP_E3.opus
</region>

<region>
hikey=D#5
hivel=127
lokey=D5
loop_end=238846
loop_mode=loop_continuous
loop_start=85108
loop_xfade=38434
lovel=0
offset=4133
pitch_keycenter=D5
sample=Violas_sustain_PP_D5.opus
</region>

<region>
hikey=D#4
hivel=127
lokey=D4
loop_end=241262
loop_mode=loop_continuous
loop_start=85969
loop_xfade=38823
lovel=0
offset=11620
pitch_keycenter=D4
sample=Violas_sustain_PP_D4.opus
</region>

<region>
hikey=D#3
hivel=127
lokey=D3
loop_end=236462
loop_mode=loop_continuous
loop_start=84258
loop_xfade=38051
lovel=0
offset=1583
pitch_keycenter=D3
sample=Violas_sustain_PP_D3.opus
</region>

<region>
hikey=C#6
hivel=127
lokey=C6
loop_end=232234
loop_mode=loop_continuous
loop_start=82752
loop_xfade=37370
lovel=0
offset=2348
pitch_keycenter=C6
sample=Violas_sustain_PP_C6.opus
</region>

<region>
hikey=C#5
hivel=127
lokey=C5
loop_end=234355
loop_mode=loop_continuous
loop_start=83508
loop_xfade=37711
lovel=0
offset=3223
pitch_keycenter=C5
sample=Violas_sustain_PP_C5.opus
</region>

<region>
hikey=C#4
hivel=127
lokey=C4
loop_end=234849
loop_mode=loop_continuous
loop_start=83683
loop_xfade=37791
lovel=0
offset=965
sample=Violas_sustain_PP_C4.opus
</region>

<region>
hikey=C#3
hivel=127
lokey=C3
loop_end=237102
loop_mode=loop_continuous
loop_start=84486
loop_xfade=38154
lovel=0
offset=4133
pitch_keycenter=C3
sample=Violas_sustain_PP_C3.opus
</region>

<region>
hikey=B5
hivel=127
lokey=A#5
loop_end=232241
loop_mode=loop_continuous
loop_start=82754
loop_xfade=37371
lovel=0
offset=3172
pitch_keycenter=A#5
sample=Violas_sustain_PP_A#5.opus
</region>

<region>
hikey=B4
hivel=127
lokey=A#4
loop_end=238017
loop_mode=loop_continuous
loop_start=84812
loop_xfade=38301
lovel=0
offset=3978
pitch_keycenter=A#4
sample=Violas_sustain_PP_A#4.opus
</region>

<region>
hikey=B3
hivel=127
lokey=A#3
loop_end=235522
loop_mode=loop_continuous
loop_start=83923
loop_xfade=37899
lovel=0
offset=980
pitch_keycenter=A#3
sample=Violas_sustain_PP_A#3.opus
</region>
</group>

<group>
group_label=FF
xf_cccurve=gain
xfin_hicc1=127
xfin_locc1=64
xfout_hicc1=127
xfout_locc1=127

<region>
hikey=A5
hivel=127
lokey=G#5
loop_end=233695
loop_mode=loop_continuous
loop_start=83272
loop_xfade=37605
lovel=0
offset=656
pitch_keycenter=G#5
sample=Violas_sustain_FF_G#5.opus
</region>

<region>
hikey=A4
hivel=127
lokey=G#4
loop_end=233747
loop_mode=loop_continuous
loop_start=83291
loop_xfade=37614
lovel=0
pitch_keycenter=G#4
sample=Violas_sustain_FF_G#4.opus
</region>

<region>
hikey=A3
hivel=127
lokey=G#3
loop_end=231167
loop_mode=loop_continuous
loop_start=82371
loop_xfade=37199
lovel=0
pitch_keycenter=G#3
sample=Violas_sustain_FF_G#3.opus
</region>

<region>
hikey=G5
hivel=127
lokey=F#5
loop_end=232563
loop_mode=loop_continuous
loop_start=82869
loop_xfade=37423
lovel=0
offset=2728
pitch_keycenter=F#5
sample=Violas_sustain_FF_F#5.opus
</region>

<region>
hikey=G4
hivel=127
lokey=F#4
loop_end=228628
loop_mode=loop_continuous
loop_start=81467
loop_xfade=36790
lovel=0
offset=185
pitch_keycenter=F#4
sample=Violas_sustain_FF_F#4.opus
</region>

<region>
hikey=G3
hivel=127
lokey=F#3
loop_end=232374
loop_mode=loop_continuous
loop_start=82802
loop_xfade=37393
lovel=0
offset=50
pitch_keycenter=F#3
sample=Violas_sustain_FF_F#3.opus
</region>

<region>
hikey=F5
hivel=127
lokey=E5
loop_end=233915
loop_mode=loop_continuous
loop_start=83351
loop_xfade=37641
lovel=0
offset=2425
pitch_keycenter=E5
sample=Violas_sustain_FF_E5.opus
</region>

<region>
hikey=F4
hivel=127
lokey=E4
loop_end=233266
loop_mode=loop_continuous
loop_start=83119
loop_xfade=37536
lovel=0
pitch_keycenter=E4
sample=Violas_sustain_FF_E4.opus
</region>

<region>
hikey=F3
hivel=127
lokey=E3
loop_end=237845
loop_mode=loop_continuous
loop_start=84751
loop_xfade=38273
lovel=0
pitch_keycenter=E3
sample=Violas_sustain_FF_E3.opus
</region>

<region>
hikey=D#5
hivel=127
lokey=D5
loop_end=235435
loop_mode=loop_continuous
loop_start=83892
loop_xfade=37885
lovel=0
offset=150
pitch_keycenter=D5
sample=Violas_sustain_FF_D5.opus
</region>

<region>
hikey=D#4
hivel=127
lokey=D4
loop_end=234821
loop_mode=loop_continuous
loop_start=83673
loop_xfade=37787
lovel=0
pitch_keycenter=D4
sample=Violas_sustain_FF_D4.opus
</region>

<region>
hikey=D#3
hivel=127
lokey=D3
loop_end=233360
loop_mode=loop_continuous
loop_start=83153
loop_xfade=37551
lovel=0
pitch_keycenter=D3
sample=Violas_sustain_FF_D3.opus
</region>

<region>
hikey=C#6
hivel=127
lokey=C6
loop_end=236886
loop_mode=loop_continuous
loop_start=84409
loop_xfade=38119
lovel=0
pitch_keycenter=C6
sample=Violas_sustain_FF_C6.opus
</region>

<region>
hikey=C#5
hivel=127
lokey=C5
loop_end=235528
loop_mode=loop_continuous
loop_start=83925
loop_xfade=37900
lovel=0
offset=92
pitch_keycenter=C5
sample=Violas_sustain_FF_C5.opus
</region>

<region>
hikey=C#4
hivel=127
lokey=C4
loop_end=234658
loop_mode=loop_continuous
loop_start=83616
loop_xfade=37760
lovel=0
offset=286
sample=Violas_sustain_FF_C4.opus
</region>

<region>
hikey=C#3
hivel=127
lokey=C3
loop_end=236222
loop_mode=loop_continuous
loop_start=84173
loop_xfade=38012
lovel=0
offset=317
pitch_keycenter=C3
sample=Violas_sustain_FF_C3.opus
</region>

<region>
hikey=B5
hivel=127
lokey=A#5
loop_end=237295
loop_mode=loop_continuous
loop_start=84555
loop_xfade=38185
lovel=0
offset=583
pitch_keycenter=A#5
sample=Violas_sustain_FF_A#5.opus
</region>

<region>
hikey=B4
hivel=127
lokey=A#4
loop_end=232873
loop_mode=loop_continuous
loop_start=82979
loop_xfade=37473
lovel=0
pitch_keycenter=A#4
sample=Violas_sustain_FF_A#4.opus
</region>

<region>
hikey=B3
hivel=127
lokey=A#3
loop_end=232108
loop_mode=loop_continuous
loop_start=82707
loop_xfade=37350
lovel=0
pitch_keycenter=A#3
sample=Violas_sustain_FF_A#3.opus
</region>
</group>